<svg width="65" height="65" viewBox="0 0 65 65" fill="none" xmlns="http://www.w3.org/2000/svg">
<circle cx="32.5" cy="32.5" r="32.5" fill="#2785F7"/>
<path d="M32 33.6667C31.4926 33.6607 30.9955 33.8104 30.5757 34.0955C30.1559 34.3806 29.8336 34.7875 29.652 35.2613C29.4705 35.7352 29.4384 36.2533 29.5602 36.7459C29.6821 37.2386 29.9519 37.682 30.3333 38.0167V40.3333C30.3333 40.7754 30.5089 41.1993 30.8215 41.5118C31.134 41.8244 31.558 42 32 42C32.442 42 32.8659 41.8244 33.1785 41.5118C33.4911 41.1993 33.6667 40.7754 33.6667 40.3333V38.0167C34.0481 37.682 34.3179 37.2386 34.4397 36.7459C34.5616 36.2533 34.5295 35.7352 34.348 35.2613C34.1664 34.7875 33.844 34.3806 33.4243 34.0955C33.0045 33.8104 32.5074 33.6607 32 33.6667ZM40.3333 27V23.6667C40.3333 21.4565 39.4554 19.3369 37.8926 17.7741C36.3297 16.2113 34.2101 15.3333 32 15.3333C29.7899 15.3333 27.6702 16.2113 26.1074 17.7741C24.5446 19.3369 23.6667 21.4565 23.6667 23.6667V27C22.3406 27 21.0688 27.5268 20.1311 28.4645C19.1934 29.4021 18.6667 30.6739 18.6667 32V43.6667C18.6667 44.9928 19.1934 46.2645 20.1311 47.2022C21.0688 48.1399 22.3406 48.6667 23.6667 48.6667H40.3333C41.6594 48.6667 42.9312 48.1399 43.8689 47.2022C44.8065 46.2645 45.3333 44.9928 45.3333 43.6667V32C45.3333 30.6739 44.8065 29.4021 43.8689 28.4645C42.9312 27.5268 41.6594 27 40.3333 27ZM27 23.6667C27 22.3406 27.5268 21.0688 28.4645 20.1311C29.4021 19.1934 30.6739 18.6667 32 18.6667C33.3261 18.6667 34.5978 19.1934 35.5355 20.1311C36.4732 21.0688 37 22.3406 37 23.6667V27H27V23.6667ZM42 43.6667C42 44.1087 41.8244 44.5326 41.5118 44.8452C41.1993 45.1577 40.7754 45.3333 40.3333 45.3333H23.6667C23.2246 45.3333 22.8007 45.1577 22.4882 44.8452C22.1756 44.5326 22 44.1087 22 43.6667V32C22 31.558 22.1756 31.134 22.4882 30.8215C22.8007 30.5089 23.2246 30.3333 23.6667 30.3333H40.3333C40.7754 30.3333 41.1993 30.5089 41.5118 30.8215C41.8244 31.134 42 31.558 42 32V43.6667Z" fill="white"/>
</svg>
