<svg width="30" height="34" viewBox="0 0 30 34" fill="none" xmlns="http://www.w3.org/2000/svg">
<rect width="30" height="34" fill="#E5E5E5"/>
<rect width="1440" height="900" transform="translate(-1326 -146)" fill="white"/>
<rect x="-1326" y="-146" width="1440" height="900" fill="white"/>
<rect x="-1289" y="-39" width="1366" height="742" rx="41" fill="#EAEBED"/>
<rect x="-250" y="17" width="292" height="325" rx="41" fill="#2684F7"/>
<rect x="-23" y="-21" width="82" height="76" rx="20" fill="white"/>
<path d="M11.6667 27C12.1087 27 12.5326 26.8244 12.8452 26.5118C13.1577 26.1993 13.3333 25.7754 13.3333 25.3333V15.3333C13.3333 14.8913 13.1577 14.4674 12.8452 14.1548C12.5326 13.8423 12.1087 13.6667 11.6667 13.6667C11.2246 13.6667 10.8007 13.8423 10.4882 14.1548C10.1756 14.4674 10 14.8913 10 15.3333V25.3333C10 25.7754 10.1756 26.1993 10.4882 26.5118C10.8007 26.8244 11.2246 27 11.6667 27ZM28.3333 7H21.6667V5.33333C21.6667 4.00725 21.1399 2.73548 20.2022 1.79779C19.2645 0.860113 17.9928 0.333328 16.6667 0.333328H13.3333C12.0073 0.333328 10.7355 0.860113 9.7978 1.79779C8.86012 2.73548 8.33333 4.00725 8.33333 5.33333V7H1.66667C1.22464 7 0.800716 7.17559 0.488155 7.48815C0.175595 7.80071 0 8.22463 0 8.66666C0 9.10869 0.175595 9.53261 0.488155 9.84517C0.800716 10.1577 1.22464 10.3333 1.66667 10.3333H3.33333V28.6667C3.33333 29.9927 3.86012 31.2645 4.7978 32.2022C5.73548 33.1399 7.00725 33.6667 8.33333 33.6667H21.6667C22.9928 33.6667 24.2645 33.1399 25.2022 32.2022C26.1399 31.2645 26.6667 29.9927 26.6667 28.6667V10.3333H28.3333C28.7754 10.3333 29.1993 10.1577 29.5119 9.84517C29.8244 9.53261 30 9.10869 30 8.66666C30 8.22463 29.8244 7.80071 29.5119 7.48815C29.1993 7.17559 28.7754 7 28.3333 7ZM11.6667 5.33333C11.6667 4.8913 11.8423 4.46738 12.1548 4.15482C12.4674 3.84226 12.8913 3.66666 13.3333 3.66666H16.6667C17.1087 3.66666 17.5326 3.84226 17.8452 4.15482C18.1577 4.46738 18.3333 4.8913 18.3333 5.33333V7H11.6667V5.33333ZM23.3333 28.6667C23.3333 29.1087 23.1577 29.5326 22.8452 29.8452C22.5326 30.1577 22.1087 30.3333 21.6667 30.3333H8.33333C7.89131 30.3333 7.46738 30.1577 7.15482 29.8452C6.84226 29.5326 6.66667 29.1087 6.66667 28.6667V10.3333H23.3333V28.6667ZM18.3333 27C18.7754 27 19.1993 26.8244 19.5118 26.5118C19.8244 26.1993 20 25.7754 20 25.3333V15.3333C20 14.8913 19.8244 14.4674 19.5118 14.1548C19.1993 13.8423 18.7754 13.6667 18.3333 13.6667C17.8913 13.6667 17.4674 13.8423 17.1548 14.1548C16.8423 14.4674 16.6667 14.8913 16.6667 15.3333V25.3333C16.6667 25.7754 16.8423 26.1993 17.1548 26.5118C17.4674 26.8244 17.8913 27 18.3333 27Z" fill="#2684F7"/>
</svg>
